,
Brought to you by  http://www.scenetime.com/signup.php
 
 Hottest scene tracker on the net !!!   
 
No fake torrents from scenebalance 
shame on those who comment fake before downloading my torrents

    seed back for speed


 



...................................NFO:.................................................[img]http://noob.hu/2011/05/23/limitless_poster_03_0.jpg[img]                                        
 

                  ::::::::::::  iNK Presents  ::::::::::::

::File:: Limitless.2011.720p.RC.BDRip.LiNE.AC3.XViD-iNK

::Video Source:: Limitless RC Blueray
::Audio Source:: OneTwo/Studio Russian

::Encoder::::::: iNK
::Syncer:::::::: iNK

::Language:::::: English
::IMDB:::::::::: http://www.imdb.com/title/tt1219289/

A writer discovers a top-secret drug which bestows him with super 
human abilities.

::Specs:::::::::

Format                           : AVI
Format/Info                      : Audio Video Interleave
Format profile                   : OpenDML
File size                        : 2.74 GiB
Duration                         : 1h 44mn
Overall bit rate                 : 3 746 Kbps
Writing application              : VirtualDubMod 1.5.10.2 (build 2540/release)
Writing library                  : VirtualDubMod build 2540/release

Video
ID                               : 0
Format                           : MPEG-4 Visual
Format profile                   : Advanced Simple@L5
Format settings, BVOP            : Yes
Format settings, QPel            : No
Format settings, GMC             : No warppoints
Format settings, Matrix          : Default (MPEG)
Muxing mode                      : Packed bitstream
Codec ID                         : XVID
Codec ID/Hint                    : XviD
Duration                         : 1h 44mn
Bit rate                         : 3 287 Kbps
Width                            : 1 280 pixels
Height                           : 528 pixels
Display aspect ratio             : 2.40:1
Frame rate                       : 23.976 fps
Color space                      : YUV
Chroma subsampling               : 4:2:0
Bit depth                        : 8 bits
Scan type                        : Progressive
Bits/(Pixel*Frame)               : 0.203
Stream size                      : 2.40 GiB (88%)
Writing library                  : XviD 58

Audio
ID                               : 1
Format                           : AC-3
Format/Info                      : Audio Coding 3
Mode extension                   : CM (complete main)
Codec ID                         : 2000
Duration                         : 1h 44mn
Bit rate mode                    : Constant
Bit rate                         : 448 Kbps
Channel(s)                       : 6 channels
Channel positions                : Front: L C R, Side: L R, LFE
Sampling rate                    : 48.0 KHz
Bit depth                        : 16 bits
Stream size                      : 336 MiB (12%)
Alignment                        : Split accross interleaves
Interleave, duration             : 42 ms (1.00 video frame)
Interleave, preload duration     : 500 ms

::NOTES::::::::: 
Wrote a very special AVS script to correct the colors and give more detail. 
Also the audio was completely redone using original raw source, embedded 
into genuine russian surrounds the iNK way and of course... never oos. 
Enjoy as always. //iNK

:: Got something we might be interested in? contact us: epic@hushmail.me ::

::::::::::::::::::::::::::::::::  RESPECT  :::::::::::::::::::::::::::::::::
IMAGiNE, Rx, FLAWL3SS, ViSiON, T0XiC, HiVE, bobwhite & All Our Friends!

                 ::::::::::::::::   I AM   ::::::::::::::::  
               :::::: Surpassing the usual or ordinary ::::::
::::::::::::::::::    Heroic and impressive in quality    ::::::::::::::::::     
 ::::::::::::::::::::::::::::::::    iNK   ::::::::::::::::::::::::::::::::

[img]http://noob.hu/2011/05/23/vlcsnap-2011-05-23-02h56m18s254.png[/img]
[img]http://noob.hu/2011/05/23/vlcsnap-2011-05-23-02h56m45s15.png[/img]
[img]http://noob.hu/2011/05/23/vlcsnap-2011-05-23-02h58m43s154.png[/img]
[img]http://noob.hu/2011/05/23/vlcsnap-2011-05-23-02h59m01s112.png[/img]
[img]http://noob.hu/2011/05/23/vlcsnap-2011-05-23-02h58m51s252.png[/img]